<?xml version="1.0" encoding="utf-8"?>
<!-- Generator: Adobe Illustrator 15.1.0, SVG Export Plug-In . SVG Version: 6.00 Build 0)  -->
<!DOCTYPE svg PUBLIC "-//W3C//DTD SVG 1.1//EN" "http://www.w3.org/Graphics/SVG/1.1/DTD/svg11.dtd">
<svg version="1.1" id="Layer_1" xmlns="http://www.w3.org/2000/svg" xmlns:xlink="http://www.w3.org/1999/xlink" x="0px" y="0px"
	 width="800px" height="600px" viewBox="0 0 800 600" enable-background="new 0 0 800 600" xml:space="preserve">
<path fill-rule="evenodd" clip-rule="evenodd" fill="#1DB8D1" d="M0.651,2.778c0,0,6.476,6.477,7.77,7.771
	c1.296,1.297,2.864,4.909,2.864,4.909l4.253-4.253c0,0-3.695-1.485-4.99-2.781C9.252,7.127,2.777,0.651,2.777,0.651
	S1.483-0.644,0.419,0.419S0.651,2.778,0.651,2.778z M25.332,23.657c-3.308-0.815-2.985-3.496-4.951-8.2
	c-0.966-2.31-3.547-2.959-3.547-2.959l-4.253,4.254C12.58,16.752,12.58,25.872,25.332,23.657z M17.153,14.357
	c1.959,1.356,3.483,6.761,4.456,7.887C17.204,19.581,15.77,15.279,17.153,14.357z"/>
</svg>
