<?xml version="1.0" encoding="utf-8"?>
<!-- Generator: Adobe Illustrator 15.1.0, SVG Export Plug-In . SVG Version: 6.00 Build 0)  -->
<!DOCTYPE svg PUBLIC "-//W3C//DTD SVG 1.1//EN" "http://www.w3.org/Graphics/SVG/1.1/DTD/svg11.dtd">
<svg version="1.1" id="Layer_1" xmlns="http://www.w3.org/2000/svg" xmlns:xlink="http://www.w3.org/1999/xlink" x="0px" y="0px"
	 width="800px" height="600px" viewBox="0 0 800 600" enable-background="new 0 0 800 600" xml:space="preserve">
<g>
	<g>
		<path fill="#00BCD4" d="M12.503,37C5.608,37,0,31.594,0,24.946V12.052C0,5.406,5.608,0,12.503,0C19.394,0,25,5.406,25,12.052
			v12.894C25,31.594,19.394,37,12.503,37z M12.503,2.506c-5.46,0-9.904,4.283-9.904,9.546v12.894c0,5.265,4.443,9.548,9.904,9.548
			c5.455,0,9.896-4.283,9.896-9.548V12.052C22.4,6.789,17.958,2.506,12.503,2.506z"/>
	</g>
	<g>
		<rect x="11.5" y="6.922" fill="#00BCD4" width="2" height="7"/>
	</g>
</g>
</svg>
